<?xml version="1.0" encoding="UTF-8"?><svg xmlns="http://www.w3.org/2000/svg" viewBox="0 0 2062.97 362.16"><defs><style>.c{fill:none;stroke:#a1be97;stroke-miterlimit:10;stroke-width:9px;}.d{fill:#a1be97;}</style></defs><g id="a"/><g id="b"><g><path class="d" d="M64.8,69.03l2.37,.97c1.05,.41,2.87,1.49,5.44,3.25,2.58,1.76,4.84,3.72,6.81,5.88,1.96,2.17,3.76,5.25,5.4,9.26,1.64,4.01,2.46,8.36,2.46,13.04,0,10.07-3.57,18.43-10.71,25.07-7.14,6.64-16.48,9.97-28.01,9.97H0V10.55H46.8c10.19,0,18.42,2.97,24.72,8.91,6.29,5.94,9.44,13.48,9.44,22.61,0,3.86-.57,7.43-1.71,10.71-1.14,3.28-2.49,5.88-4.04,7.81-1.55,1.93-3.12,3.56-4.7,4.87-1.58,1.32-2.9,2.21-3.95,2.68l-1.76,.88ZM46.8,19.6H9.04v45.83H46.8c8.02,0,14.21-2.06,18.57-6.19,4.36-4.13,6.54-9.85,6.54-17.17,0-6.85-2.21-12.31-6.63-16.38-4.42-4.07-10.58-6.1-18.48-6.1ZM9.04,127.51H48.56c9.25,0,16.51-2.4,21.78-7.2,5.27-4.8,7.9-11.09,7.9-18.88,0-8.25-2.6-14.82-7.81-19.71-5.21-4.89-12.5-7.33-21.86-7.33H9.04v53.12Z"/><path class="d" d="M254.69,27.68c12.41,12.59,18.61,27.87,18.61,45.84s-6.21,33.25-18.61,45.83c-12.41,12.59-27.48,18.88-45.22,18.88s-32.66-6.29-45.13-18.88c-12.47-12.58-18.7-27.86-18.7-45.83s6.23-33.25,18.7-45.84c12.47-12.58,27.51-18.88,45.13-18.88s32.81,6.29,45.22,18.88Zm-6.28,85.48c10.62-10.74,15.94-23.96,15.94-39.64s-5.31-28.9-15.94-39.65c-10.62-10.74-23.61-16.11-38.94-16.11s-28.32,5.37-38.94,16.11c-10.62,10.74-15.94,23.96-15.94,39.65s5.31,28.9,15.94,39.64c10.62,10.74,23.6,16.11,38.94,16.11s28.32-5.37,38.94-16.11Z"/><path class="d" d="M358.71,117.33c7.84,7.96,17.41,11.94,28.71,11.94s20.87-3.98,28.71-11.94c7.84-7.96,11.77-17.77,11.77-29.42V10.55h8.96V87.91c0,13.93-4.86,25.8-14.58,35.61-9.72,9.81-21.34,14.71-34.86,14.71s-25.14-4.9-34.86-14.71c-9.72-9.8-14.58-21.67-14.58-35.61V10.55h8.96V87.91c0,11.65,3.92,21.46,11.77,29.42Z"/><path class="d" d="M582.49,135.94c-4.8,1.58-10.48,2.34-17.03,2.28-17.62,0-32.66-6.29-45.13-18.88-12.47-12.58-18.7-27.86-18.7-45.83s6.23-33.25,18.7-45.84c12.47-12.58,27.51-18.88,45.13-18.88s32.81,6.29,45.22,18.88c12.41,12.59,18.61,27.87,18.61,45.84,0,8.02-1.29,15.57-3.86,22.65-2.58,7.08-5.72,12.75-9.44,16.99-3.72,4.25-7.43,7.96-11.15,11.15-3.72,3.19-6.83,5.46-9.35,6.8l-3.95,1.76c.23,.47,.61,1.16,1.14,2.06,.53,.91,1.76,2.5,3.69,4.79s4.13,4.29,6.59,6.01c2.46,1.73,5.78,3.31,9.97,4.74,4.18,1.43,8.74,2.15,13.65,2.15,1.93,0,3.64-.06,5.14-.18s2.47-.29,2.94-.53l.97-.18v8.96c-1.81,.58-4.83,.91-9.04,.97-5.97,0-11.59-.88-16.86-2.63-5.27-1.76-9.5-3.92-12.69-6.5-3.19-2.58-5.93-5.12-8.21-7.64-2.28-2.52-3.89-4.6-4.83-6.23l-1.49-2.72Zm21.91-22.79c10.62-10.74,15.94-23.96,15.94-39.64s-5.31-28.9-15.94-39.65c-10.62-10.74-23.61-16.11-38.94-16.11s-28.32,5.37-38.94,16.11c-10.62,10.74-15.94,23.96-15.94,39.65s5.31,28.9,15.94,39.64c10.62,10.74,23.6,16.11,38.94,16.11s28.32-5.37,38.94-16.11Z"/><path class="d" d="M715.66,117.33c7.84,7.96,17.41,11.94,28.71,11.94s20.87-3.98,28.71-11.94c7.84-7.96,11.77-17.77,11.77-29.42V10.55h8.96V87.91c0,13.93-4.86,25.8-14.58,35.61-9.72,9.81-21.34,14.71-34.86,14.71s-25.14-4.9-34.86-14.71c-9.72-9.8-14.58-21.67-14.58-35.61V10.55h8.96V87.91c0,11.65,3.92,21.46,11.77,29.42Z"/><path class="d" d="M876.58,127.51h77.27v8.96h-86.31V10.55h84.56v9.04h-75.51v46.71h61.11v9.04h-61.11v52.16Z"/><path class="d" d="M1000.61,10.55h91.67v9.04h-41.36v116.87h-8.96V19.6h-41.36V10.55Z"/><path class="d" d="M1368.12,127.51h77.27v8.96h-86.31V10.55h84.56v9.04h-75.51v46.71h61.11v9.04h-61.11v52.16Z"/><path class="d" d="M1543.43,136.47l-49.52-125.92h9.92l44.08,112.39,44.08-112.39h9.83l-49.44,125.92h-8.96Z"/><path class="d" d="M1671.95,127.51h77.27v8.96h-86.31V10.55h84.56v9.04h-75.51v46.71h61.11v9.04h-61.11v52.16Z"/><path class="d" d="M1903.02,10.55h8.96v125.92h-7.2l-83.59-108.79v108.79h-9.04V10.55h7.2l83.68,108.79V10.55Z"/><path class="d" d="M1971.3,10.55h91.67v9.04h-41.36v116.87h-8.96V19.6h-41.36V10.55Z"/></g><path class="c" d="M1189.17,135c-70.91,0-62.6,80.3-62.6,80.3l29.34-.1c54.82,0,51.35-62.11,51.35-62.11V4.53h-1.11l-73.08,104.22v.38h74.2"/><path class="c" d="M1225.76,362.16V90.99s-3.68-62.11,51.35-62.11l29.34-.1s8.31,80.3-62.6,80.3"/></g></svg>