<?xml version="1.0" encoding="utf-8"?>
<!-- Generator: Adobe Illustrator 26.1.0, SVG Export Plug-In . SVG Version: 6.00 Build 0)  -->
<svg version="1.1" id="Layer_1" xmlns="http://www.w3.org/2000/svg" xmlns:xlink="http://www.w3.org/1999/xlink" x="0px" y="0px"
	 viewBox="0 0 7282.43 3528.34" style="enable-background:new 0 0 7282.43 3528.34;" xml:space="preserve">
<style type="text/css">
	.st0{fill:none;stroke:#E3738D;stroke-width:7;stroke-miterlimit:10;}
	.st1{fill:#FFFFFF;}
	.st2{fill:#A2BE98;}
</style>
<g>
	<g>
		<path class="st1" d="M926.01,1456.45l6.66,2.71c2.96,1.15,8.05,4.19,15.29,9.13c7.23,4.93,13.6,10.44,19.11,16.52
			c5.51,6.08,10.56,14.76,15.17,26.02c4.6,11.27,6.91,23.47,6.91,36.62c0,28.28-10.03,51.75-30.09,70.41
			c-20.06,18.66-46.29,27.99-78.68,27.99H744v-353.67h131.45c28.61,0,51.75,8.35,69.43,25.03c17.67,16.69,26.51,37.86,26.51,63.51
			c0,10.85-1.6,20.88-4.81,30.09c-3.21,9.21-6.99,16.52-11.34,21.95c-4.36,5.43-8.76,9.99-13.19,13.69
			c-4.44,3.7-8.14,6.21-11.1,7.52L926.01,1456.45z M875.45,1317.6H769.4v128.74h106.05c22.52,0,39.91-5.8,52.16-17.39
			c12.25-11.59,18.37-27.66,18.37-48.22c0-19.24-6.21-34.57-18.62-46C914.95,1323.31,897.65,1317.6,875.45,1317.6z M769.4,1620.71
			h110.98c25.98,0,46.37-6.74,61.17-20.22c14.8-13.48,22.2-31.16,22.2-53.03c0-23.18-7.32-41.64-21.95-55.37
			c-14.64-13.73-35.11-20.59-61.41-20.59H769.4V1620.71z"/>
		<path class="st1" d="M1459.38,1340.29c34.86,35.35,52.28,78.27,52.28,128.74c0,50.48-17.43,93.39-52.28,128.74
			c-34.86,35.35-77.2,53.02-127.02,53.02c-49.49,0-91.75-17.67-126.77-53.02c-35.02-35.35-52.53-78.26-52.53-128.74
			c0-50.48,17.51-93.39,52.53-128.74c35.02-35.35,77.28-53.02,126.77-53.02C1382.18,1287.26,1424.52,1304.94,1459.38,1340.29z
			 M1441.74,1580.38c29.84-30.17,44.76-67.29,44.76-111.35c0-44.06-14.92-81.18-44.76-111.36c-29.84-30.17-66.31-45.26-109.38-45.26
			c-43.08,0-79.54,15.09-109.38,45.26c-29.84,30.18-44.76,67.29-44.76,111.36c0,44.07,14.92,81.18,44.76,111.35
			c29.84,30.17,66.3,45.26,109.38,45.26C1375.44,1625.64,1411.9,1610.56,1441.74,1580.38z"/>
		<path class="st1" d="M1751.53,1592.1c22.03,22.36,48.91,33.54,80.65,33.54c31.73,0,58.61-11.18,80.65-33.54
			c22.03-22.36,33.05-49.9,33.05-82.62v-217.28h25.16v217.28c0,39.13-13.65,72.47-40.94,100.01c-27.3,27.54-59.93,41.31-97.91,41.31
			c-37.98,0-70.62-13.77-97.91-41.31c-27.3-27.54-40.94-60.88-40.94-100.01v-217.28h25.16v217.28
			C1718.48,1542.2,1729.5,1569.74,1751.53,1592.1z"/>
		<path class="st1" d="M2380.1,1644.38c-13.48,4.44-29.43,6.57-47.85,6.41c-49.49,0-91.75-17.67-126.77-53.02
			c-35.02-35.35-52.53-78.26-52.53-128.74c0-50.48,17.51-93.39,52.53-128.74c35.02-35.35,77.28-53.02,126.77-53.02
			c49.82,0,92.16,17.68,127.02,53.02c34.86,35.35,52.28,78.27,52.28,128.74c0,22.53-3.62,43.74-10.85,63.63
			c-7.24,19.9-16.07,35.8-26.51,47.72c-10.44,11.92-20.88,22.36-31.32,31.32c-10.44,8.96-19.2,15.33-26.27,19.11l-11.1,4.93
			c0.66,1.32,1.73,3.25,3.21,5.8c1.48,2.55,4.93,7.03,10.36,13.44c5.43,6.41,11.59,12.04,18.5,16.89
			c6.91,4.85,16.24,9.29,27.99,13.32c11.75,4.03,24.54,6.04,38.35,6.04c5.43,0,10.24-0.16,14.43-0.49c4.19-0.33,6.94-0.82,8.26-1.48
			l2.71-0.49v25.16c-5.1,1.64-13.57,2.55-25.4,2.71c-16.77,0-32.56-2.47-47.35-7.4c-14.8-4.93-26.68-11.02-35.64-18.25
			c-8.96-7.24-16.65-14.39-23.06-21.46c-6.41-7.07-10.94-12.91-13.56-17.51L2380.1,1644.38z M2441.63,1580.38
			c29.84-30.17,44.76-67.29,44.76-111.35c0-44.06-14.92-81.18-44.76-111.36c-29.84-30.17-66.31-45.26-109.38-45.26
			c-43.08,0-79.54,15.09-109.38,45.26c-29.84,30.18-44.76,67.29-44.76,111.36c0,44.07,14.92,81.18,44.76,111.35
			c29.84,30.17,66.3,45.26,109.38,45.26C2375.32,1625.64,2411.79,1610.56,2441.63,1580.38z"/>
		<path class="st1" d="M2754.14,1592.1c22.03,22.36,48.91,33.54,80.65,33.54c31.73,0,58.61-11.18,80.65-33.54
			c22.03-22.36,33.05-49.9,33.05-82.62v-217.28h25.16v217.28c0,39.13-13.65,72.47-40.94,100.01c-27.3,27.54-59.93,41.31-97.91,41.31
			c-37.98,0-70.62-13.77-97.91-41.31c-27.3-27.54-40.94-60.88-40.94-100.01v-217.28h25.16v217.28
			C2721.09,1542.2,2732.1,1569.74,2754.14,1592.1z"/>
		<path class="st1" d="M3206.11,1620.71h217.03v25.16h-242.44v-353.67h237.51v25.4h-212.1v131.21h171.65v25.4h-171.65V1620.71z"/>
		<path class="st1" d="M3554.5,1292.19h257.48v25.4h-116.16v328.27h-25.16V1317.6H3554.5V1292.19z"/>
		<path class="st1" d="M4586.75,1620.71h217.04v25.16h-242.44v-353.67h237.51v25.4h-212.1v131.21h171.65v25.4h-171.65V1620.71z"/>
		<path class="st1" d="M5079.17,1645.86l-139.1-353.67h27.87l123.81,315.69l123.81-315.69h27.62l-138.85,353.67H5079.17z"/>
		<path class="st1" d="M5440.14,1620.71h217.03v25.16h-242.44v-353.67h237.51v25.4h-212.1v131.21h171.65v25.4h-171.65V1620.71z"/>
		<path class="st1" d="M6089.17,1292.19h25.16v353.67h-20.22l-234.79-305.58v305.58h-25.4v-353.67h20.22l235.04,305.58V1292.19z"/>
		<path class="st1" d="M6280.95,1292.19h257.48v25.4h-116.16v328.27h-25.16V1317.6h-116.16V1292.19z"/>
	</g>
	<g>
		<path class="st2" d="M3896.92,1872.98l-1.18-11.38c-0.48-4.68-11.13-115.3,51.85-185.13c32.53-36.08,78.47-54.37,136.54-54.37
			v25.28c-50.56,0-90.15,15.45-117.69,45.93c-44.54,49.3-46.99,125.64-46.17,154.31l70.41-0.25c40.77,0,72.65-12.25,94.8-36.4
			c43.02-46.9,36.94-123.55,36.87-124.31l-0.05-1.09v-110.84h-208.34l-0.08-17.67l211.4-301.5l22.29,0.21v429.3
			c0.63,8.37,5.37,89.74-43.48,143c-27.14,29.59-65.29,44.59-113.39,44.59L3896.92,1872.98z M3950.11,1549.45h172.21v-245.61
			L3950.11,1549.45z"/>
	</g>
	<g>
		<path class="st2" d="M4198.73,2272.79h-25.28v-761.17c-0.63-8.37-5.37-89.74,43.48-142.99c27.14-29.59,65.29-44.59,113.39-44.59
			l93.81-0.33l1.18,11.38c0.48,4.68,11.13,115.29-51.85,185.13c-32.53,36.07-78.47,54.37-136.54,54.37v-25.28
			c50.56,0,90.15-15.45,117.69-45.93c44.54-49.3,46.99-125.64,46.17-154.31l-70.41,0.25c-40.71,0-72.56,12.21-94.71,36.3
			c-42.94,46.69-37.03,123.66-36.96,124.43l0.05,1.07V2272.79z"/>
	</g>
</g>
</svg>
