<?xml version="1.0" encoding="utf-8"?>
<!-- Generator: Adobe Illustrator 26.1.0, SVG Export Plug-In . SVG Version: 6.00 Build 0)  -->
<svg version="1.1" id="Layer_1" xmlns="http://www.w3.org/2000/svg" xmlns:xlink="http://www.w3.org/1999/xlink" x="0px" y="0px"
	 viewBox="0 0 5669.29 5157.11" style="enable-background:new 0 0 5669.29 5157.11;" xml:space="preserve">
<style type="text/css">
	.st0{fill:none;stroke:#E3738D;stroke-width:7;stroke-miterlimit:10;}
	.st1{fill:#A2BE98;}
</style>
<g>
	<g>
		<path class="st1" d="M1875.38,2974.51l-4.29-41.4c-1.76-17.02-40.5-419.58,188.68-673.71
			c118.39-131.28,285.56-197.84,496.88-197.84v91.99c-183.99,0-328.08,56.23-428.27,167.13c-162.09,179.41-171,457.2-168.03,561.54
			l256.24-0.9c148.35,0,264.37-44.57,345-132.47c156.55-170.66,134.42-449.59,134.18-452.39l-0.17-3.96v-403.35h-758.16l-0.29-64.31
			l769.31-1097.19l81.13,0.75v1562.27c2.3,30.46,19.55,326.59-158.21,520.37c-98.77,107.67-237.6,162.27-412.63,162.27
			L1875.38,2974.51z M2068.92,1797.16h626.69V903.38L2068.92,1797.16z"/>
	</g>
	<g>
		<path class="st1" d="M2973.68,4429.46h-91.99V1659.49c-2.3-30.46-19.55-326.58,158.21-520.36
			c98.78-107.68,237.6-162.28,412.63-162.28l341.38-1.19l4.29,41.4c1.76,17.01,40.5,419.57-188.68,673.7
			c-118.39,131.28-285.56,197.84-496.88,197.84v-91.99c183.99,0,328.08-56.23,428.27-167.13c162.09-179.41,171-457.2,168.03-561.54
			l-256.24,0.89c-148.14,0-264.05,44.44-344.67,132.1c-156.27,169.93-134.75,450-134.51,452.81l0.17,3.9V4429.46z"/>
	</g>
</g>
</svg>
